<svg width="70" height="20" fill="none" xmlns="http://www.w3.org/2000/svg">
  <path d="M0 4.464h3.22l.636 1.042c.53-.4 1.027-.701 1.49-.901.477-.214 1.08-.32 1.81-.32.635 0 1.172.133 1.609.4.437.253.775.607 1.014 1.06 1.272-.974 2.398-1.46 3.378-1.46 1.299 0 2.193.34 2.684 1.02.49.681.735 1.729.735 3.143v6.807H12.72V8.81c0-.387-.093-.654-.278-.801-.186-.16-.444-.24-.775-.24-.265 0-.53.06-.795.18a2.18 2.18 0 0 0-.656.44v6.867H6.36V8.81c0-.387-.093-.654-.278-.801-.186-.16-.444-.24-.775-.24-.265 0-.53.06-.795.18a2.18 2.18 0 0 0-.656.44v6.867H0V4.465Zm22.974 10.791c-2.067 0-3.319-1.04-3.756-3.123l-1.65-7.668h3.995l1.213 6.887c.079.494.364.754.854.781l1.372-7.668h3.915l-2.723 13.554L25.2 20h-3.26l1.034-4.745Zm11.407 0c-.94 0-1.683-.127-2.226-.38-.53-.254-.914-.674-1.153-1.261-.238-.588-.338-1.395-.298-2.423l.12-3.643h-1.65V5.065l1.808-.6.477-3.024h3.061v3.023h2.166v3.084H34.52v3.623c0 .347.053.607.159.781.12.16.305.254.556.28l1.372.14v2.883H34.38ZM37.965 0h3.856v5.506c.33-.32.781-.601 1.351-.841.583-.254 1.153-.38 1.71-.38 1.205 0 2.053.333 2.543 1 .504.668.756 1.655.756 2.963v7.007h-3.856V8.77c0-.668-.351-1.001-1.053-1.001-.252 0-.517.06-.795.18-.266.12-.484.267-.656.44v6.867h-3.856V0Zm16.747 15.355c-1.285 0-2.299-.18-3.041-.54-.729-.374-1.259-.954-1.59-1.742-.318-.8-.477-1.882-.477-3.243 0-1.455.159-2.576.477-3.364.331-.8.861-1.36 1.59-1.681.729-.334 1.742-.5 3.041-.5s2.312.173 3.041.52c.729.333 1.252.9 1.57 1.702.331.8.497 1.908.497 3.323s-.159 2.516-.477 3.303c-.305.788-.822 1.355-1.55 1.702-.729.347-1.756.52-3.08.52Zm0-3.083c.358 0 .616-.046.775-.14.172-.107.292-.327.358-.66.08-.348.12-.901.12-1.662 0-.748-.04-1.288-.12-1.622-.066-.347-.185-.567-.358-.66-.159-.107-.417-.16-.775-.16-.358 0-.623.053-.795.16-.16.093-.278.313-.358.66-.066.334-.1.874-.1 1.622 0 .76.034 1.314.1 1.662.08.333.199.553.358.66.172.094.437.14.795.14Zm10.617 3.103a18.77 18.77 0 0 1-2.345-.14c-.729-.106-1.332-.267-1.809-.48v-2.263h4.97c.238 0 .397-.026.476-.08.08-.066.12-.173.12-.32v-.26c0-.147-.053-.254-.16-.32-.092-.067-.284-.1-.576-.1h-1.789c-.98 0-1.775-.248-2.385-.741-.596-.494-.894-1.282-.894-2.363v-.66c0-.734.132-1.335.397-1.802.279-.48.756-.848 1.431-1.101.69-.254 1.63-.38 2.823-.38.689 0 1.41.066 2.166.2.769.12 1.345.26 1.73.42v2.262h-4.711c-.199 0-.345.034-.437.1-.093.054-.14.154-.14.3v.26c0 .161.053.275.16.341.119.054.33.08.635.08h1.849c1.113 0 1.914.254 2.405.761.503.507.755 1.241.755 2.202v1.101c0 1.068-.378 1.836-1.133 2.303-.755.454-1.934.68-3.538.68Z" fill="#fff"/>
</svg>
