<svg width="483" height="486" fill="none" xmlns="http://www.w3.org/2000/svg">
  <g clip-path="url(#a)">
    <path d="M65.29 239.288c-7.165-8.696-17.913-17.034-30.094-16.556-11.238.429-22.415 7.86-26.273 18.166-6.388 16.891-3.582 36.726-1.456 54.177a74.897 74.897 0 0 0 6.498 22.769 71.592 71.592 0 0 0 3.583 6.69c7.308-5.177 17.053-8.433 26.189-7.598-1.314-7.384-5.1-12.799-11.13-17.463a2.031 2.031 0 0 1-1.015-1.192 1.934 1.934 0 0 1 .215-1.635 85.447 85.447 0 0 0 5.816-29.713 2.872 2.872 0 0 1 2.304-2.504 2.38 2.38 0 0 1 1.839.271 2.4 2.4 0 0 1 1.087 1.506c3.87 11.332 7.834 23.32 16.134 32.313a104.6 104.6 0 0 1 .084-10.949c.932-15.77 3.487-32.206 8.73-47.534a2.098 2.098 0 0 1-2.508-.751l-.002.003Z" fill="#fff"/>
    <path d="M20.435 328.617a15.42 15.42 0 0 0 8.634 5.546c8.766 1.682 14.188-4.842 14.869-12.155-8.109-1.025-17.138 1.955-23.503 6.609Z" fill="#805F75"/>
    <path d="M290.367 262.57c10.187-5.058 25.495-10.735 34.8-1.098 7.918 8.147 8.992 20.755 9.41 31.356.538 14.313-2.099 29.701 1.541 43.669 3.439 13.12 12.468 21.47 23.587 27.983-13.818-17.046-9.77-47.128-7.667-67.835 1.839-18.075 1.839-40.556-11.943-54.785-8.12-8.349-19.717-12.346-31.394-8.803-11.677 3.543-21.819 11.749-24.661 23.463a.995.995 0 0 1-.084.25 34.897 34.897 0 0 1 4.717 3.973c.583.6 1.145 1.209 1.694 1.827Z" fill="#00D3D4"/>
    <path d="M173.01 201.333a75.457 75.457 0 0 0 2.986 21.471 42.379 42.379 0 0 0 9.984 17.366c.296-.117.612-.178.932-.178 16.217-.3 20.947-10.926 27.801-22.879a36.179 36.179 0 0 1 7.44-9.304c-17.651 1.54-35.515 6.717-49.143-6.476Z" fill="#029FA0"/>
    <path d="M175.983 169.568c7.345 8.719 19.383 11.642 30.681 12.048a113.935 113.935 0 0 1-4.693-13.252c-3.5-11.558-5.111-25.717-14.547-34.508A42.588 42.588 0 0 0 167.6 123.57l-3.881-.882c8.359 8.576 13.877 19.443 13.685 32.205-.149 4.918-.623 9.82-1.421 14.675Z" fill="#00D3D4"/>
    <path d="M111.937 465.467a27.712 27.712 0 0 0 3.236 6.525c2.843 4.128 6.843 5.01 11.369 2.386a13.667 13.667 0 0 0 6.772-8.54 42.673 42.673 0 0 0-21.377-.371Z" fill="#805F75"/>
    <path d="M173.38 189.357c-.103 1.59-.187 3.213-.251 4.866.34.156.639.389.872.68 14.175 17.14 35.038 8.147 54.19 7.623a33.11 33.11 0 0 1-14.598-9.543 41.6 41.6 0 0 1-4.407-6.405c-.19.018-.382.018-.573 0-12.197-.143-24.684-2.958-33.593-10.902-.661 4.617-1.353 9.148-1.64 13.681Z" fill="#029FA0"/>
    <path d="M157.867 83.795c-.884-7.431-1.66-14.887-2.1-22.37a2.764 2.764 0 0 1-.549-.906c-1.193-3.411-5.612-3.889-9.04-3.328a2179.136 2179.136 0 0 0-2.868 22.548c5.446-1.681 10.342.5 14.557 4.056ZM158.831 91.977a2.334 2.334 0 0 1-.358-.333c-4.012-4.629-9.198-9.973-15.704-6.179l-.167.072a48699.99 48699.99 0 0 1-2.389 20.278 2.54 2.54 0 0 1-.442 1.192 76.527 76.527 0 0 1 10.832 5.428c.43.033.842.181 1.194.429a31.253 31.253 0 0 0 10.019 4.163c-.832-8.387-1.918-16.712-2.985-25.05ZM155.394 53.617c-.477-14.207-.119-28.377-.548-42.547-.084-2.386.417-8.84-.741-3.46-.633 2.97-1.087 5.964-1.624 8.958a721.5 721.5 0 0 0-4.777 29.14c-.3 2.098-.549 4.21-.848 6.31a15.54 15.54 0 0 1 8.538 1.599Z" fill="#fff"/>
    <path d="M164.018 447.337a54.076 54.076 0 0 0-1.517 14.003c7.166 1.372 14.33 2.649 21.496 3.495.37-1.514.8-3.005 1.194-4.493 0-.06-.131-.1-.2-.155-6.081-5.789-12.709-10.643-20.973-12.85Z" fill="#805F75"/>
    <path d="M334.1 346.366c-5.673-12.87-4.777-26.492-4.61-40.137.143-11.463 1-25.228-4.323-35.785-6.592-13.12-20.541-9.187-31.683-3.757 5.135 7.705 7.166 16.698 7.166 26.038 18.056 4.772 18.856 24.608 21.066 39.423 1.42 9.487 4.012 17.331 11.656 24.046a75.56 75.56 0 0 0 29.425 15.757c-11.799-5.891-23.383-13.549-28.697-25.585Z" fill="#029FA0"/>
    <path d="M278.903 259.613c-15.764-9.16-33.343-4.568-50.49-3.244-21.233 1.622-44.402-3.387-54.075-23.629-9.231-19.287-7.142-41.951-4.012-62.444a1.81 1.81 0 0 1 .167-1.192c1.862-12.512 2.842-24.405-4.515-35.688-6.898-10.605-17.913-18.334-30.118-22.664-12.397-4.366-26.154-6.357-39.302-4.366-12.468 1.885-34.012 9.399-27.814 25.565 4.956 12.954 17.627 15.721 28.78 21.983 8.707 4.878 14.929 11.475 12.922 21.685-.143.699-.119.656-.37 1.73-1.828 14.194-15.441 24.142-23.156 35.64-10.247 15.292-15.968 31.8-19.407 49.585-3.44 17.786-6.533 38.576.406 55.923a36.136 36.136 0 0 0 9.864 13.781c.968.822 14.737 9.029 22.105 10.126-.514-4.938-1.05-9.9-1.505-14.862-.287-3.208 4.92-3.184 5.219 0 .585 6.561 1.4 13.121 2.066 19.658.92 9.196 1.636 18.5.8 27.732-.836 9.232-2.879 18.108-3.344 27.277-.775 15.018 2.914 28.77 5.052 43.44.681 4.676 1.194 9.96 2.389 14.979a48.358 48.358 0 0 1 23.396.143v-.978c-.43-12.428-5.599-23.855-7.954-35.963-2.031-10.472.442-21.04 5.673-30.344 11.656-20.66 36.093-38.456 31.05-64.411-.6-3.149 4.407-4.494 5.028-1.336 2.126 10.998-.334 20.91-5.147 30.166 16.074 1.932 33.08 1.384 45.81-8.863a38.947 38.947 0 0 1 3.189-10.234c1.385-2.934 5.876-.381 4.49 2.529a34.134 34.134 0 0 0-1.768 4.617l-.1.345c.084 0 0 .119-.06.358a34.56 34.56 0 0 0-.92 4.412c-.072 0 0 .6-.119.645 0 .499-.1.998-.119 1.502-.019.505 0 1.193 0 1.798a17.765 17.765 0 0 0 .466 5.403 32.054 32.054 0 0 0 6.927 14.911s3.105 3.447 3.809 3.972h.1c.764.68 1.553 1.336 2.389 1.957 8.132 5.963 13.614 12.655 13.255 23.044-.442 12.776-5.816 24.441-11.059 35.976a141.762 141.762 0 0 0-8.061 20.277 46.784 46.784 0 0 1 22.858 12.918c.3-.989.537-1.884.752-2.496a89.985 89.985 0 0 1 3.583-9.687c4.645-9.721 11.465-18.44 16.277-28.114a149.047 149.047 0 0 0 8.55-22.495c3.582-11.463 7.226-23.368 7.906-35.367.251-4.437.644-10.27-2.186-14.111-3.224-4.402-9.554-2.087-13.733-.417-2.986 1.192-4.336-3.245-1.7-4.676a1.984 1.984 0 0 1 .49-1.503c13.709-17.486 31.181-36.487 31.755-59.556.481-13.704-3.556-27.922-16.489-35.437ZM132.347 135.3a5.635 5.635 0 0 1-5.286-6.854 5.627 5.627 0 0 1 4.478-4.309 5.645 5.645 0 0 1 5.723 2.428c.61.921.936 2.001.937 3.105a5.754 5.754 0 0 1-5.852 5.63Z" fill="#fff"/>
    <path d="M318.348 342.096c-3.451-13.825-.775-38.576-17.913-44.229a54.907 54.907 0 0 1-2.162 11.463c.215.25.374.543.466.859.41.1.788.301 1.1.584 14.044 12.561 7.941 34.52 21.496 47.605a54.558 54.558 0 0 0 27.276 13.781c-13.83-6.194-26.811-16.297-30.263-30.063Z" fill="#029FA0"/>
    <path d="M207.799 355.67c-12.05 7.689-26.751 8.815-41.285 7.589 5.72 14.58 13.498 30.047 9.961 45.995-2.556 11.463-7.882 22.126-11.178 33.231 8.359 2.171 15.346 6.835 21.663 12.525 8.658-25.299 24.864-47.867 31.229-73.953a30.296 30.296 0 0 1-4.264-4.772 35.988 35.988 0 0 1-6.126-20.615Z" fill="#E5E9FF"/>
    <path d="M219.644 465.444a38.136 38.136 0 0 0-.167 13.98c6.413.699 14.14 3.209 20.027 1.336a4.28 4.28 0 0 0 2.162-2.075c0-.06-.119-.1-.167-.155-6.139-6.479-13.112-11.011-21.855-13.086Z" fill="#805F75"/>
    <path d="M382.908 371.809c-43.876-7.92-23.228-66.798-24.923-95.544-1.075-18.189-8.499-39.851-27.706-47.127-20.075-7.611-45.261 4.993-50.934 24.865-10.461-5.283-23.049-5.558-34.98-4.394-16.264 1.587-32.984 4.509-48.509-2.48a31.69 31.69 0 0 1-4.43-2.458c10.533-1.407 17.841-7.157 23.227-16.577 2.843-4.986 5.087-10.341 8.813-14.814a19.23 19.23 0 0 1 8.707-5.964h.107a30.865 30.865 0 0 1 10.163-1.479c2.866 0 3.654-4.473.693-4.914-10.748-1.587-21.162-4.771-27.647-13.705-6.174-8.54-8.359-19.729-11.333-29.559-3.379-11.248-6.031-21.47-15.525-29.534a45.392 45.392 0 0 0-15.862-8.341c-1.863-.573-3.75-1.026-5.625-1.467-2.199-23.379-5.888-46.448-6.799-69.958-.381-9.793-1.026-19.765-.525-29.56.275-5.236 1.779-13.645-2.723-17.675-3.582-3.208-6.676 1.193-7.69 4.116-3.189 9.187-3.751 19.99-5.255 29.534-3.691 23.414-6.234 46.972-9.125 70.483-21.819-7.276-62.1-8.767-71.486 16.008-4.454 11.736 5.709 24.046 15.716 29.498 9.098 4.95 26.942 9.316 26.404 21.602v.728a29.217 29.217 0 0 1-2.508 8.516c-2.651 7.324-8.622 13.55-13.566 19.478a124.997 124.997 0 0 0-16.399 25.724c-1.457 3.018-2.758 6.119-3.965 9.28a1.993 1.993 0 0 0-.191-.287c-8.12-9.828-18.964-17.076-32.137-18.046-12.588-.919-24.795 7.157-30.907 17.319-5.986 9.889-6.186 22.815-5.914 33.911a199.559 199.559 0 0 0 3.021 31.872c2.759 14.588 12.432 43.191 33.248 37.836 8.443-2.159 12.492-9.543 12.838-17.236a2.529 2.529 0 0 0 0-3.161c-.67-8.731-5.2-16.067-11.943-21.602a82.056 82.056 0 0 0 4.562-17.952c3.034 7.896 6.736 15.506 12.277 21.947h-.085s.263.3.7.763c.155.179.322.358.49.526a68.413 68.413 0 0 0 1.647 1.669c.24.227.442.466.681.692l.191.143a31.28 31.28 0 0 0 1.959 1.706c1.48 10.293 5.183 20.087 12.73 28.043 3.082 3.256 21.76 12.906 28.017 13.311 1.123 11.984 1.72 23.952-.155 36.05-2.723 17.523-3.236 34.222.573 51.637 1.958 8.945 2.937 18.074 5.063 26.981 1.66 7.013 4.478 15.379 12.014 18.298 8.025 3.112 17.196-4.652 19.908-11.201 4.227-10.246-.514-23.773-3.333-33.768-3.332-11.821-5.649-21.805-1.062-33.744 4.359-11.319 13.136-20.814 20.496-30.429 2.185-2.875 4.215-5.797 6.055-8.788l.883.107c.033.196.085.387.155.572 6.473 16.855 14.75 32.994 8.683 51.183-3.189 9.543-7.345 18.882-9.96 28.521a2.77 2.77 0 0 0-.49 1.908 58.237 58.237 0 0 0-1.8 18.584 2.54 2.54 0 0 0 1.911 2.386c8.873 1.706 17.746 3.316 26.739 4.258a2.555 2.555 0 0 0 2.507-1.836c6.628-29.522 26.273-54.368 34.048-83.437 5.768 4.605 11.38 8.779 12.049 17.75 1.1 14.54-7.738 29.187-13.435 42.093-5.299 12.036-9.554 24.666-6.437 37.764a2.613 2.613 0 0 0 2.532 1.789c7.834.251 15.74 2.804 23.586 1.325 6.736-1.265 8.789-13.956 10.557-18.882 3.905-10.926 12.026-20.635 17.376-31.013 4.199-8.123 6.938-16.699 9.554-25.371 4.084-13.24 17.329-60.033-7.699-56.431 9.65-12.168 20.136-24.954 25.772-39.303 7.535 7.013 8.359 18.19 10.581 27.518a41.744 41.744 0 0 0 15.882 24.333c16.497 12.632 40.031 14.313 59.963 10.175 2.434-.459 2.518-4.301-.015-4.765Zm-98.87-115.285c2.842-11.714 13.052-19.932 24.661-23.463 11.609-3.531 23.276.418 31.394 8.803 13.782 14.23 13.782 36.714 11.943 54.785-2.1 20.707-6.15 50.789 7.666 67.835-11.117-6.453-20.147-14.827-23.586-27.983-3.642-13.968-1-29.391-1.541-43.669-.418-10.604-1.492-23.211-9.41-31.356-9.298-9.614-24.613-3.961-34.8 1.098-.549-.62-1.111-1.192-1.7-1.825a34.897 34.897 0 0 0-4.717-3.973c.03-.083.066-.168.09-.252Zm-69.325-39.363c-6.855 11.929-11.584 22.58-27.802 22.879-.319 0-.635.061-.931.178a42.39 42.39 0 0 1-9.985-17.367 75.445 75.445 0 0 1-2.985-21.47c13.626 13.193 31.494 8.016 49.143 6.513a36.156 36.156 0 0 0-7.44 9.256v.011Zm-5.517-30.523a41.6 41.6 0 0 0 4.407 6.405 33.11 33.11 0 0 0 14.598 9.543c-19.108.525-40.019 9.542-54.19-7.623a2.399 2.399 0 0 0-.872-.68c.067-1.638.15-3.26.251-4.866.287-4.533.944-9.065 1.648-13.581 8.909 7.944 21.396 10.735 33.593 10.902.194-.017.386-.053.573-.107l-.008.007Zm-41.592-63.052a42.588 42.588 0 0 1 19.824 10.286c9.435 8.788 11.047 22.949 14.546 34.508a113.935 113.935 0 0 0 4.693 13.252c-11.298-.406-23.336-3.329-30.681-12.048a111.24 111.24 0 0 0 1.421-14.731c.191-12.703-5.267-23.567-13.685-32.205l3.882.938Zm-19.896-77.83a721.907 721.907 0 0 1 4.777-29.14c.538-2.97.991-5.964 1.624-8.958 1.193-5.38.657 1.122.741 3.46.429 14.17.071 28.34.548 42.546a15.539 15.539 0 0 0-8.498-1.597c.255-2.1.506-4.212.805-6.312l.003.001Zm-1.534 11.439c3.428-.56 7.811-.084 9.04 3.328.123.335.309.643.549.907.442 7.478 1.194 14.934 2.1 22.369-4.215-3.578-9.112-5.737-14.557-4.056.926-7.517 1.882-15.034 2.868-22.548Zm-5.969 48.618c.796-6.767 1.592-13.526 2.389-20.278l.167-.072c6.557-3.794 11.692 1.54 15.728 6.179.107.123.227.235.358.333 1.039 8.35 2.125 16.699 2.937 25.049a31.253 31.253 0 0 1-10.019-4.163 2.389 2.389 0 0 0-1.194-.429 76.652 76.652 0 0 0-10.844-5.464c.236-.344.384-.742.43-1.157l.048.002ZM29.141 334.163a15.42 15.42 0 0 1-8.634-5.546c6.365-4.652 15.441-7.635 23.503-6.608-.753 7.312-6.174 13.837-14.94 12.155l.072-.001Zm29.856-46.626c-.22 3.646-.247 7.301-.084 10.949-8.299-8.993-12.265-20.98-16.134-32.313a2.375 2.375 0 0 0-1.087-1.505 2.38 2.38 0 0 0-1.838-.272 2.88 2.88 0 0 0-2.305 2.504 85.45 85.45 0 0 1-5.816 29.713 1.93 1.93 0 0 0-.215 1.634 2.03 2.03 0 0 0 1.015 1.192c6.03 4.664 9.816 10.079 11.13 17.463-9.137-.835-18.88 2.386-26.19 7.598a71.467 71.467 0 0 1-3.582-6.69 74.9 74.9 0 0 1-6.484-22.735c-2.138-17.451-4.932-37.283 1.456-54.189 3.918-10.305 15.097-17.737 26.273-18.166 12.241-.478 22.953 7.86 30.095 16.556a2.103 2.103 0 0 0 2.388.716c-5.135 15.303-7.69 31.781-8.621 47.545h-.001Zm67.593 186.84c-4.526 2.624-8.526 1.742-11.369-2.386a27.7 27.7 0 0 1-3.24-6.524 42.673 42.673 0 0 1 21.377.369 13.669 13.669 0 0 1-6.772 8.54l.004.001Zm57.502-9.543c-7.237-.846-14.39-2.123-21.496-3.495a54.076 54.076 0 0 1 1.517-14.003c8.264 2.207 14.892 7.001 21.054 12.846.072 0 .143.1.2.155a47.137 47.137 0 0 0-1.326 4.493l.051.004Zm2.925-9.828c-6.317-5.692-13.291-10.354-21.662-12.525 3.299-11.104 8.622-21.769 11.177-33.231 3.583-15.948-4.239-31.419-9.96-45.995 14.535 1.193 29.235.107 41.284-7.589a35.99 35.99 0 0 0 6.127 20.563 30.34 30.34 0 0 0 4.263 4.772c-6.412 26.135-22.618 48.702-31.277 73.997l.048.008Zm52.546 25.752c-5.888 1.873-13.614-.632-20.027-1.336-.806-4.631-.75-9.37.167-13.98 8.741 2.028 15.716 6.607 21.855 13.12.06.047.115.099.167.155a4.282 4.282 0 0 1-2.222 2.04l.06.001Zm55.915-185.695c-.573 23.068-18.045 42.071-31.755 59.556a1.973 1.973 0 0 0-.49 1.503c-2.64 1.431-1.29 5.869 1.7 4.676 4.156-1.67 10.509-3.985 13.733.417 2.83 3.841 2.388 9.674 2.186 14.111-.681 11.999-4.36 23.856-7.906 35.367a149.047 149.047 0 0 1-8.55 22.495c-4.777 9.674-11.632 18.394-16.277 28.114a89.985 89.985 0 0 0-3.583 9.687c-.215.608-.453 1.503-.752 2.496a46.773 46.773 0 0 0-22.93-12.93 141.82 141.82 0 0 1 8.061-20.278c5.243-11.534 10.617-23.199 11.059-35.975.358-10.385-5.123-17.045-13.255-23.045a29.636 29.636 0 0 1-2.389-1.956h-.1c-.7-.525-3.809-3.972-3.809-3.972a32.054 32.054 0 0 1-6.927-14.911 17.765 17.765 0 0 1-.466-5.403v-1.798a13.77 13.77 0 0 1 .119-1.503c.072 0 0-.599.119-.644a34.56 34.56 0 0 1 .92-4.412c0-.239.143-.311.06-.358l.1-.346a34.172 34.172 0 0 1 1.768-4.616c1.386-2.91-3.106-5.464-4.49-2.529a38.947 38.947 0 0 0-3.189 10.234c-12.73 10.246-29.736 10.795-45.81 8.863 4.777-9.256 7.273-19.168 5.147-30.166-.621-3.161-5.625-1.814-5.028 1.336 5.028 26.003-19.406 43.799-31.05 64.41-5.231 9.305-7.699 19.873-5.673 30.345 2.389 12.096 7.524 23.535 7.953 35.963v.978a48.354 48.354 0 0 0-23.395-.143c-1.194-5.022-1.684-10.305-2.389-14.979-2.137-14.672-5.827-28.424-5.052-43.44.466-9.172 2.532-18.166 3.344-27.291.812-9.124.119-18.536-.8-27.732-.669-6.561-1.481-13.121-2.066-19.658-.3-3.184-5.505-3.208-5.219 0 .454 4.962.991 9.924 1.505 14.862-7.369-1.098-21.138-9.304-22.105-10.126a36.136 36.136 0 0 1-9.864-13.781c-6.939-17.343-3.833-38.17-.406-55.923 3.427-17.752 9.16-34.293 19.406-49.585 7.715-11.499 21.329-21.47 23.157-35.64.251-1.074.227-1.026.37-1.73 2.007-10.211-4.215-16.807-12.922-21.685-11.153-6.262-23.824-9.029-28.78-21.983-6.21-16.103 15.334-23.617 27.802-25.502 13.136-1.992 26.905 0 39.302 4.366 12.158 4.294 23.216 12.023 30.118 22.664 7.357 11.284 6.377 23.175 4.515 35.688a1.805 1.805 0 0 0-.167 1.192c-3.129 20.445-5.219 43.109 4.036 62.396 9.673 20.278 32.842 25.252 54.074 23.629 17.149-1.324 34.729-5.964 50.491 3.244 12.933 7.527 16.97 21.733 16.504 35.414-.024.024-.012.024-.012.036l.057-.002Zm25.903 63.312c-13.519-13.121-7.417-35.044-21.496-47.605a2.53 2.53 0 0 0-1.1-.584 2.307 2.307 0 0 0-.466-.859 54.907 54.907 0 0 0 2.162-11.463c17.114 5.654 14.438 30.405 17.913 44.229 3.476 13.824 16.433 23.856 30.251 30.058a54.555 54.555 0 0 1-27.324-13.781l.06.005Zm12.049-2.231c-7.643-6.715-10.234-14.563-11.655-24.046-2.21-14.815-3.01-34.675-21.066-39.423 0-9.34-2.031-18.333-7.166-26.038 11.142-5.428 25.079-9.387 31.683 3.757 5.326 10.605 4.466 24.367 4.323 35.785-.167 13.646-1.063 27.267 4.61 40.138 5.314 12.035 16.897 19.694 28.662 25.538a75.57 75.57 0 0 1-29.449-15.71l.058-.001Z" fill="#000"/>
    <path d="M132.344 123.992a5.635 5.635 0 0 0-5.286 6.854 5.627 5.627 0 0 0 4.478 4.309 5.645 5.645 0 0 0 5.723-2.429c.61-.92.936-2 .937-3.104a5.75 5.75 0 0 0-5.852-5.63Z" fill="#000"/>
    <path d="M295.407 295.028c.466-13.681-3.583-27.887-16.504-35.414-15.764-9.16-33.343-4.568-50.49-3.244-21.233 1.622-44.402-3.387-54.075-23.629-9.231-19.287-7.142-41.951-4.012-62.444a1.81 1.81 0 0 1 .167-1.192c1.862-12.512 2.842-24.405-4.515-35.688-6.898-10.605-17.913-18.334-30.118-22.664-12.397-4.366-26.154-6.357-39.302-4.366-9.124 1.383-23.063 5.76-27.47 14.313 10.95-.608 36.221-.728 57.478 8.552a5.841 5.841 0 0 1 1.965-3.799 5.856 5.856 0 0 1 7.966.236 5.842 5.842 0 0 1 1.737 3.909 5.527 5.527 0 0 1-2.389 4.533c16.946 10.652 28.829 29.319 23.754 61.814-13.698 87.671 86.438 76.948 102.548 76.948s27.909 38.873 11.798 66.224a17.873 17.873 0 0 0-2.21 5.368c11.692-14.732 23.276-30.775 23.742-49.49l-.07.033Z" fill="#E5E9FF"/>
    <path d="M158.835 91.977a2.334 2.334 0 0 1-.358-.333c-2.389-2.803-5.267-5.833-8.575-6.979l-.787 26.91c.478.275.943.536 1.408.823.43.033.842.181 1.194.429a26.555 26.555 0 0 0 6.354 3.054l3.582.763c-.702-8.242-1.767-16.448-2.818-24.667ZM150.737 57.196l-.657 22.368a19.433 19.433 0 0 1 7.787 4.223c-.884-7.431-1.66-14.887-2.1-22.37a2.763 2.763 0 0 1-.549-.906 5.417 5.417 0 0 0-4.481-3.315ZM154.843 11.117c-.084-2.385.418-8.838-.741-3.459-.633 2.97-1.087 5.964-1.624 8.958-.239 1.192-.43 2.504-.657 3.746l-.932 31.855c1.57.202 3.093.675 4.5 1.398-.471-14.157-.136-28.327-.546-42.498Z" fill="#fff"/>
    <path d="M65.29 239.288c-7.165-8.696-17.913-17.034-30.094-16.556-11.238.429-22.415 7.86-26.273 18.166-5.016 13.276-4.37 28.361-2.818 42.703 1.505-9.852 8.73-48.905 28.661-48.714 18.869.226 28.9 5.57 32.244 7.419.251-.762.478-1.538.741-2.301a2.104 2.104 0 0 1-2.46-.716v-.001Z" fill="#E5E9FF"/>
    <path d="M422.225 92.933a2.53 2.53 0 0 1-1.81 1.575l-7.419 1.781 5.92 4.803a2.618 2.618 0 0 1 .957 2.221l-.595 7.617 6.411-4.157a2.552 2.552 0 0 1 2.399-.207l7.058 2.918-1.96-7.385a2.571 2.571 0 0 1-.02-1.242 2.6 2.6 0 0 1 .562-1.108l4.963-5.81-7.626-.412a2.602 2.602 0 0 1-2.072-1.24l-3.977-6.506-2.791 7.152ZM465.317 115.525a2.585 2.585 0 0 1-2.274.749l-4.446-.749 2.093 3.976a2.618 2.618 0 0 1 0 2.397l-2.093 3.976 4.446-.769a2.562 2.562 0 0 1 2.299.749l3.156 3.226.595-4.441a2.522 2.522 0 0 1 1.421-1.936l4.033-1.992-4.034-1.985a2.605 2.605 0 0 1-1.421-1.936l-.644-4.467-3.131 3.202ZM424.163 146.122a2.54 2.54 0 0 1-2.145 1.085l-4.37-.052 2.612 3.485a2.61 2.61 0 0 1 .388 2.376l-1.4 4.131 4.136-1.42a2.6 2.6 0 0 1 2.379.361l3.515 2.583-.078-4.364a2.59 2.59 0 0 1 1.09-2.139l3.541-2.535-4.162-1.291a2.61 2.61 0 0 1-1.706-1.704l-1.318-4.157-2.482 3.641Z" fill="#FED710"/>
    <path d="m422.044 79.093-4.137 10.741-11.197 2.685a2.568 2.568 0 0 0-1.913 1.937c-.043.186-.06.377-.052.568a2.59 2.59 0 0 0 .957 2.014l8.944 7.255-.9 11.464a2.625 2.625 0 0 0 1.241 2.427 2.558 2.558 0 0 0 2.74-.052l9.669-6.248 10.624 4.415a2.585 2.585 0 0 0 3.489-3.044l-2.973-11.105 7.497-8.753a2.553 2.553 0 0 0-.489-3.78 2.59 2.59 0 0 0-1.347-.454l-11.503-.62-5.999-9.811a2.557 2.557 0 0 0-2.43-1.214 2.594 2.594 0 0 0-2.221 1.575Zm8.998 14.485 7.626.413-4.963 5.81a2.662 2.662 0 0 0-.543 2.35l1.965 7.385-7.061-2.972a2.639 2.639 0 0 0-2.399.207l-6.411 4.157.595-7.616a2.557 2.557 0 0 0-.957-2.221l-5.899-4.777 7.42-1.781a2.644 2.644 0 0 0 1.81-1.575l2.736-7.126 3.981 6.507a2.688 2.688 0 0 0 2.098 1.243l.002-.004ZM462.552 110.955l-8.273-1.42a2.616 2.616 0 0 0-2.533 1.032 2.502 2.502 0 0 0-.491 1.523c.005.421.102.835.284 1.214l3.899 7.41-3.899 7.411a2.512 2.512 0 0 0 .207 2.711 2.667 2.667 0 0 0 2.533 1.038l8.273-1.42 5.842 5.992a2.602 2.602 0 0 0 2.662.645 2.539 2.539 0 0 0 1.758-2.091l1.215-8.289 7.523-3.725a2.59 2.59 0 0 0 0-4.647l-7.522-3.717-1.215-8.289a2.572 2.572 0 0 0-1.758-2.091 2.614 2.614 0 0 0-2.662.645l-5.843 6.068Zm7.962 7.746 4.033 1.988-4.034 1.989a2.607 2.607 0 0 0-1.42 1.936l-.647 4.464-3.154-3.228a2.617 2.617 0 0 0-2.299-.749l-4.448.781 2.093-3.976a2.619 2.619 0 0 0 0-2.397l-2.093-3.983 4.446.749a2.504 2.504 0 0 0 2.274-.749l3.155-3.225.646 4.467a2.711 2.711 0 0 0 1.448 1.933ZM427.964 134.245a2.562 2.562 0 0 0-2.508 1.058l-4.731 6.739-8.247-.078a2.59 2.59 0 0 0-2.326 1.42 2.552 2.552 0 0 0 .233 2.711l4.934 6.585-2.608 7.796a2.582 2.582 0 0 0 .621 2.66 2.59 2.59 0 0 0 2.663.62l7.807-2.66 6.614 4.907a2.573 2.573 0 0 0 2.72.229 2.567 2.567 0 0 0 1.39-2.346l-.129-8.236 6.725-4.778a2.58 2.58 0 0 0 1.06-2.504 2.613 2.613 0 0 0-1.784-2.065l-7.882-2.428-2.456-7.849a2.648 2.648 0 0 0-2.096-1.781Zm1.731 14.175 4.162 1.291-3.541 2.531a2.596 2.596 0 0 0-1.086 2.143l.052 4.338-3.515-2.583a2.524 2.524 0 0 0-2.379-.361l-4.136 1.42 1.4-4.132a2.6 2.6 0 0 0-.388-2.375l-2.611-3.486 4.37.051a2.66 2.66 0 0 0 2.145-1.084l2.503-3.562 1.319 4.157a2.594 2.594 0 0 0 1.705 1.652Z" fill="#0A0D23"/>
    <path d="M345.047 202.54c.393.147.742.39 1.018.705.275.316.467.695.56 1.103l1.785 7.416 4.812-5.917a2.623 2.623 0 0 1 2.224-.956l7.632.6-4.165-6.409a2.547 2.547 0 0 1-.207-2.402l2.923-7.054-7.398 1.963a2.609 2.609 0 0 1-1.245.02 2.607 2.607 0 0 1-1.11-.562l-5.821-4.961-.414 7.622a2.595 2.595 0 0 1-1.242 2.067l-6.518 3.98 7.166 2.785ZM367.683 159.467a2.588 2.588 0 0 1 .75 2.274l-.75 4.444 3.984-2.097a2.636 2.636 0 0 1 2.406 0l3.984 2.097-.776-4.444a2.553 2.553 0 0 1 .75-2.296l3.233-3.153-4.449-.599a2.53 2.53 0 0 1-1.94-1.421l-1.992-4.031-1.992 4.031a2.612 2.612 0 0 1-1.94 1.421l-4.475.646 3.207 3.128ZM398.338 200.602a2.536 2.536 0 0 1 1.087 2.145l-.052 4.367 3.492-2.609a2.607 2.607 0 0 1 1.143-.484 2.609 2.609 0 0 1 1.237.096l4.139 1.399-1.423-4.135a2.591 2.591 0 0 1 .362-2.376l2.587-3.515-4.372.078a2.598 2.598 0 0 1-2.148-1.085l-2.536-3.54-1.293 4.16a2.614 2.614 0 0 1-1.708 1.706l-4.165 1.318 3.65 2.475Z" fill="#FED710"/>
    <path d="m331.182 202.721 10.762 4.135 2.69 11.184a2.57 2.57 0 0 0 1.941 1.913c.186.042.378.06.569.051a2.6 2.6 0 0 0 2.018-.955l7.269-8.94 11.486.905a2.63 2.63 0 0 0 2.431-1.24 2.564 2.564 0 0 0-.051-2.74l-6.261-9.663 4.423-10.619a2.582 2.582 0 0 0-1.633-3.462 2.605 2.605 0 0 0-1.42-.027l-11.123 2.972-8.77-7.489a2.555 2.555 0 0 0-2.69-.414 2.59 2.59 0 0 0-1.552 2.248l-.621 11.498-9.83 5.992a2.559 2.559 0 0 0-1.216 2.429 2.585 2.585 0 0 0 1.578 2.222Zm14.512-8.987.414-7.622 5.821 4.961a2.68 2.68 0 0 0 1.112.553c.409.094.835.09 1.243-.011l7.398-1.963-2.975 7.054a2.636 2.636 0 0 0 .207 2.402l4.165 6.409-7.632-.6a2.563 2.563 0 0 0-2.224.956l-4.786 5.892-1.785-7.416a2.636 2.636 0 0 0-1.578-1.808l-7.139-2.739 6.518-3.98a2.693 2.693 0 0 0 1.242-2.093l-.001.005ZM363.105 162.232l-1.423 8.268a2.605 2.605 0 0 0 1.035 2.533c.441.327.978.499 1.527.491a2.873 2.873 0 0 0 1.215-.285l7.425-3.901 7.425 3.901a2.52 2.52 0 0 0 2.716-.206 2.666 2.666 0 0 0 1.035-2.533l-1.423-8.268 5.999-5.84a2.602 2.602 0 0 0 .647-2.662 2.534 2.534 0 0 0-2.1-1.756l-8.304-1.214-3.725-7.519a2.607 2.607 0 0 0-3.698-1.052 2.608 2.608 0 0 0-.959 1.052l-3.725 7.519-8.304 1.214a2.578 2.578 0 0 0-2.1 1.756 2.616 2.616 0 0 0 .647 2.662l6.09 5.84Zm7.76-7.958 1.992-4.031 1.99 4.034a2.612 2.612 0 0 0 1.94 1.421l4.475.646-3.233 3.152a2.607 2.607 0 0 0-.75 2.297l.776 4.444-3.984-2.097a2.636 2.636 0 0 0-2.406 0l-3.984 2.097.75-4.444a2.489 2.489 0 0 0-.75-2.274l-3.233-3.152 4.475-.646a2.734 2.734 0 0 0 1.942-1.444v-.003ZM386.438 196.804a2.57 2.57 0 0 0 1.061 2.506l6.752 4.729-.078 8.242a2.6 2.6 0 0 0 2.814 2.601c.481-.041.94-.217 1.325-.508l6.599-4.935 7.814 2.605a2.593 2.593 0 0 0 2.665-.619 2.581 2.581 0 0 0 .621-2.662l-2.665-7.803 4.915-6.615a2.567 2.567 0 0 0-2.121-4.108l-8.253.129-4.786-6.718a2.6 2.6 0 0 0-2.509-1.06 2.617 2.617 0 0 0-2.07 1.783l-2.431 7.881-7.865 2.455a2.646 2.646 0 0 0-1.788 2.097Zm14.198-1.732 1.293-4.16 2.536 3.54a2.602 2.602 0 0 0 2.148 1.085l4.346-.052-2.587 3.515a2.523 2.523 0 0 0-.362 2.376l1.423 4.135-4.139-1.398a2.61 2.61 0 0 0-2.38.387l-3.492 2.609.052-4.367a2.668 2.668 0 0 0-1.087-2.145l-3.57-2.506 4.165-1.318a2.597 2.597 0 0 0 1.659-1.705l-.005.004Z" fill="#0A0D23"/>
  </g>
  <defs>
    <clipPath id="a">
      <path fill="#fff" d="M0 0h483v486H0z"/>
    </clipPath>
  </defs>
</svg>
